# xmcd
# Copyright (C) 1995-1998 Ti Kan
#
# Track frame offsets:
#       150
#       21535
#       39331
#       62102
#       87308
#       102641
#       124242
#       138431
#       155347
#       175335
#       191276
#       212630
#
# Disc length: 2977 seconds
#
# Revision: 0
# Processed by: cddbd v1.5.2PL0 Copyright (c) Steve Scherf et al.
# Submitted via: CD-Import v1.0
#
DISCID=a90b9f0c
DTITLE=Rufus Wainwright - Poses
DYEAR=1900
DGENRE=
TTITLE0=Cigarettes And Chocolate Milk
TTITLE1=Greek Song
TTITLE2=Poses
TTITLE3=Shadows
TTITLE4=California
TTITLE5=Tower Of Learning
TTITLE6=Grey Gardens
TTITLE7=Rebel Prince
TTITLE8=Consort
TTITLE9=One Man Guy
TTITLE10=Evil Angel
TTITLE11=In A Graveyard
EXTD=
EXTT0=
EXTT1=
EXTT2=
EXTT3=
EXTT4=
EXTT5=
EXTT6=
EXTT7=
EXTT8=
EXTT9=
EXTT10=
EXTT11=
PLAYORDER=
